# xmcd
#
# Track frame offsets:
#	150
#	27503
#	44668
#	62485
#	90625
#	111443
#	131018
#	150183
#	173938
#	189048
#
# Disc length: 2942 seconds
# Revision: 0
# Processed by: cddbd v1.5.2PL0 Copyright (c) Steve Scherf et al.
# Submitted via: dBpowerAMP V12.0
#
DISCID=7d0b7c0a
DTITLE=Atahualpa - Ritmo Andino
DYEAR=1990
DGENRE=Electronic
TTITLE0=Ultimo imperio
TTITLE1=A tambor batiente
TTITLE2=Linda Paisanita (tradicional Ayacucho)
TTITLE3=La furia y el condor
TTITLE4=Pio Pio (tradicional Huancayo)
TTITLE5=Andino
TTITLE6=Ultimo imperio (Tendenthia Mix)
TTITLE7=Cultivos (tradicional Altiplano)
TTITLE8=Camino a la huaka
TTITLE9=Luna de sangre
EXTD=
EXTT0=
EXTT1=
EXTT2=
EXTT3=
EXTT4=
EXTT5=
EXTT6=
EXTT7=
EXTT8=
EXTT9=
PLAYORDER=
